<svg xmlns="http://www.w3.org/2000/svg" xmlns:xlink="http://www.w3.org/1999/xlink" contentStyleType="text/css" height="1011px" preserveAspectRatio="none" style="width:1521px;height:1011px;background:#FFFFFF;" version="1.1" viewBox="0 0 1521 1011" width="1521px" zoomAndPan="magnify"><defs/><g><!--class Inmate--><g id="elem_Inmate"><rect codeLine="1" fill="#F1F1F1" height="455.4219" id="Inmate" rx="2.5" ry="2.5" style="stroke:#181818;stroke-width:0.5;" width="303" x="299.5" y="7"/><ellipse cx="423.25" cy="23" fill="#ADD1B2" rx="11" ry="11" style="stroke:#181818;stroke-width:1.0;"/><path d="M426.2188,28.6406 Q425.6406,28.9375 425,29.0781 Q424.3594,29.2344 423.6563,29.2344 Q421.1563,29.2344 419.8281,27.5938 Q418.5156,25.9375 418.5156,22.8125 Q418.5156,19.6875 419.8281,18.0313 Q421.1563,16.375 423.6563,16.375 Q424.3594,16.375 425,16.5313 Q425.6563,16.6875 426.2188,16.9844 L426.2188,19.7031 Q425.5938,19.125 425,18.8594 Q424.4063,18.5781 423.7813,18.5781 Q422.4375,18.5781 421.75,19.6563 Q421.0625,20.7188 421.0625,22.8125 Q421.0625,24.9063 421.75,25.9844 Q422.4375,27.0469 423.7813,27.0469 Q424.4063,27.0469 425,26.7813 Q425.5938,26.5 426.2188,25.9219 L426.2188,28.6406 Z " fill="#000000"/><text fill="#000000" font-family="sans-serif" font-size="14" lengthAdjust="spacing" textLength="47" x="443.75" y="27.8467">Inmate</text><line style="stroke:#181818;stroke-width:0.5;" x1="300.5" x2="601.5" y1="39" y2="39"/><rect fill="none" height="6" style="stroke:#C82930;stroke-width:1.0;" width="6" x="307.5" y="49.6484"/><text fill="#000000" font-family="sans-serif" font-size="14" lengthAdjust="spacing" textLength="87" x="319.5" y="55.9951">name: string</text><rect fill="none" height="6" style="stroke:#C82930;stroke-width:1.0;" width="6" x="307.5" y="65.9453"/><text fill="#000000" font-family="sans-serif" font-size="14" lengthAdjust="spacing" textLength="69" x="319.5" y="72.292">health: int</text><rect fill="none" height="6" style="stroke:#C82930;stroke-width:1.0;" width="6" x="307.5" y="82.2422"/><text fill="#000000" font-family="sans-serif" font-size="14" lengthAdjust="spacing" textLength="74" x="319.5" y="88.5889">energy: int</text><rect fill="none" height="6" style="stroke:#C82930;stroke-width:1.0;" width="6" x="307.5" y="98.5391"/><text fill="#000000" font-family="sans-serif" font-size="14" lengthAdjust="spacing" textLength="85" x="319.5" y="104.8857">strength: int</text><rect fill="none" height="6" style="stroke:#C82930;stroke-width:1.0;" width="6" x="307.5" y="114.8359"/><text fill="#000000" font-family="sans-serif" font-size="14" lengthAdjust="spacing" textLength="70" x="319.5" y="121.1826">speed: int</text><rect fill="none" height="6" style="stroke:#C82930;stroke-width:1.0;" width="6" x="307.5" y="131.1328"/><text fill="#000000" font-family="sans-serif" font-size="14" lengthAdjust="spacing" textLength="105" x="319.5" y="137.4795">intelligence: int</text><rect fill="none" height="6" style="stroke:#C82930;stroke-width:1.0;" width="6" x="307.5" y="147.4297"/><text fill="#000000" font-family="sans-serif" font-size="14" lengthAdjust="spacing" textLength="104" x="319.5" y="153.7764">money: double</text><rect fill="none" height="6" style="stroke:#C82930;stroke-width:1.0;" width="6" x="307.5" y="163.7266"/><text fill="#000000" font-family="sans-serif" font-size="14" lengthAdjust="spacing" textLength="156" x="319.5" y="170.0732">currentLocation: string</text><rect fill="none" height="6" style="stroke:#C82930;stroke-width:1.0;" width="6" x="307.5" y="180.0234"/><text fill="#000000" font-family="sans-serif" font-size="14" lengthAdjust="spacing" textLength="170" x="319.5" y="186.3701">MAXSIZENAME: const int</text><rect fill="none" height="6" style="stroke:#C82930;stroke-width:1.0;" width="6" x="307.5" y="196.3203"/><text fill="#000000" font-family="sans-serif" font-size="14" lengthAdjust="spacing" textLength="203" x="319.5" y="202.667">inmateMap: map&lt;int, string&gt;</text><rect fill="none" height="6" style="stroke:#C82930;stroke-width:1.0;" width="6" x="307.5" y="212.6172"/><text fill="#000000" font-family="sans-serif" font-size="14" lengthAdjust="spacing" textLength="68" x="319.5" y="218.9639">nextId: int</text><line style="stroke:#181818;stroke-width:0.5;" x1="300.5" x2="601.5" y1="226.2656" y2="226.2656"/><ellipse cx="310.5" cy="239.9141" fill="#84BE84" rx="3" ry="3" style="stroke:#038048;stroke-width:1.0;"/><text fill="#000000" font-family="sans-serif" font-size="14" lengthAdjust="spacing" textLength="57" x="319.5" y="243.2607">Inmate()</text><ellipse cx="310.5" cy="256.2109" fill="#84BE84" rx="3" ry="3" style="stroke:#038048;stroke-width:1.0;"/><text fill="#000000" font-family="sans-serif" font-size="14" lengthAdjust="spacing" textLength="277" x="319.5" y="259.5576">Inmate(string, int, int, int, int, int, double)</text><ellipse cx="310.5" cy="272.5078" fill="#84BE84" rx="3" ry="3" style="stroke:#038048;stroke-width:1.0;"/><text fill="#000000" font-family="sans-serif" font-size="14" lengthAdjust="spacing" textLength="159" x="319.5" y="275.8545">Inmate(const Inmate&amp;)</text><ellipse cx="310.5" cy="288.8047" fill="#84BE84" rx="3" ry="3" style="stroke:#038048;stroke-width:1.0;"/><text fill="#000000" font-family="sans-serif" font-size="14" lengthAdjust="spacing" textLength="69" x="319.5" y="292.1514">~Inmate()</text><ellipse cx="310.5" cy="305.1016" fill="#84BE84" rx="3" ry="3" style="stroke:#038048;stroke-width:1.0;"/><text fill="#000000" font-family="sans-serif" font-size="14" lengthAdjust="spacing" textLength="91" x="319.5" y="308.4482">toJson(): json</text><ellipse cx="310.5" cy="321.3984" fill="#84BE84" rx="3" ry="3" style="stroke:#038048;stroke-width:1.0;"/><text fill="#000000" font-family="sans-serif" font-size="14" lengthAdjust="spacing" textLength="85" x="319.5" y="324.7451">isNull(): bool</text><ellipse cx="310.5" cy="337.6953" fill="#84BE84" rx="3" ry="3" style="stroke:#038048;stroke-width:1.0;"/><text fill="#000000" font-family="sans-serif" font-size="14" lengthAdjust="spacing" textLength="105" x="319.5" y="341.042">moveTo(string)</text><ellipse cx="310.5" cy="353.9922" fill="#84BE84" rx="3" ry="3" style="stroke:#038048;stroke-width:1.0;"/><text fill="#000000" font-family="sans-serif" font-size="14" lengthAdjust="spacing" textLength="147" x="319.5" y="357.3389">viewAllInmates(): void</text><ellipse cx="310.5" cy="370.2891" fill="#84BE84" rx="3" ry="3" style="stroke:#038048;stroke-width:1.0;"/><text fill="#000000" font-family="sans-serif" font-size="14" lengthAdjust="spacing" textLength="119" x="319.5" y="373.6357">viewProfile(): void</text><ellipse cx="310.5" cy="386.5859" fill="#84BE84" rx="3" ry="3" style="stroke:#038048;stroke-width:1.0;"/><text fill="#000000" font-family="sans-serif" font-size="14" lengthAdjust="spacing" textLength="131" x="319.5" y="389.9326">readBook(int): void</text><ellipse cx="310.5" cy="402.8828" fill="#84BE84" rx="3" ry="3" style="stroke:#038048;stroke-width:1.0;"/><text fill="#000000" font-family="sans-serif" font-size="14" lengthAdjust="spacing" textLength="104" x="319.5" y="406.2295">bathe(int): void</text><ellipse cx="310.5" cy="419.1797" fill="#84BE84" rx="3" ry="3" style="stroke:#038048;stroke-width:1.0;"/><text fill="#000000" font-family="sans-serif" font-size="14" lengthAdjust="spacing" textLength="122" x="319.5" y="422.5264">workOut(int): void</text><rect fill="#F24D5C" height="6" style="stroke:#C82930;stroke-width:1.0;" width="6" x="307.5" y="432.4766"/><text fill="#000000" font-family="sans-serif" font-size="14" lengthAdjust="spacing" textLength="204" x="319.5" y="438.8232">showPercentageBar(int): void</text><rect fill="#F24D5C" height="6" style="stroke:#C82930;stroke-width:1.0;" width="6" x="307.5" y="448.7734"/><text fill="#000000" font-family="sans-serif" font-size="14" lengthAdjust="spacing" textLength="223" x="319.5" y="455.1201">repeatCharacter(string, int): void</text></g><!--class BotInmate--><g id="elem_BotInmate"><rect codeLine="29" fill="#F1F1F1" height="243.5625" id="BotInmate" rx="2.5" ry="2.5" style="stroke:#181818;stroke-width:0.5;" width="402" x="7" y="579.46"/><ellipse cx="168.25" cy="595.46" fill="#ADD1B2" rx="11" ry="11" style="stroke:#181818;stroke-width:1.0;"/><path d="M171.2188,601.1006 Q170.6406,601.3975 170,601.5381 Q169.3594,601.6944 168.6563,601.6944 Q166.1563,601.6944 164.8281,600.0538 Q163.5156,598.3975 163.5156,595.2725 Q163.5156,592.1475 164.8281,590.4913 Q166.1563,588.835 168.6563,588.835 Q169.3594,588.835 170,588.9913 Q170.6563,589.1475 171.2188,589.4444 L171.2188,592.1631 Q170.5938,591.585 170,591.3194 Q169.4063,591.0381 168.7813,591.0381 Q167.4375,591.0381 166.75,592.1163 Q166.0625,593.1788 166.0625,595.2725 Q166.0625,597.3663 166.75,598.4444 Q167.4375,599.5069 168.7813,599.5069 Q169.4063,599.5069 170,599.2413 Q170.5938,598.96 171.2188,598.3819 L171.2188,601.1006 Z " fill="#000000"/><text fill="#000000" font-family="sans-serif" font-size="14" lengthAdjust="spacing" textLength="71" x="188.75" y="600.3067">BotInmate</text><line style="stroke:#181818;stroke-width:0.5;" x1="8" x2="408" y1="611.46" y2="611.46"/><rect fill="none" height="6" style="stroke:#C82930;stroke-width:1.0;" width="6" x="15" y="622.1084"/><text fill="#000000" font-family="sans-serif" font-size="14" lengthAdjust="spacing" textLength="207" x="27" y="628.4551">MAXNUMREQUESTS: const int</text><rect fill="none" height="6" style="stroke:#C82930;stroke-width:1.0;" width="6" x="15" y="638.4053"/><text fill="#000000" font-family="sans-serif" font-size="14" lengthAdjust="spacing" textLength="376" x="27" y="644.752">REQUESTS: const static Request[MAXNUMREQUESTS]</text><rect fill="none" height="6" style="stroke:#C82930;stroke-width:1.0;" width="6" x="15" y="654.7022"/><text fill="#000000" font-family="sans-serif" font-size="14" lengthAdjust="spacing" textLength="206" x="27" y="661.0489">REWARDVALUE: const double</text><rect fill="none" height="6" style="stroke:#C82930;stroke-width:1.0;" width="6" x="15" y="670.9991"/><text fill="#000000" font-family="sans-serif" font-size="14" lengthAdjust="spacing" textLength="122" x="27" y="677.3457">request: Request</text><line style="stroke:#181818;stroke-width:0.5;" x1="8" x2="408" y1="684.6475" y2="684.6475"/><ellipse cx="18" cy="698.2959" fill="#84BE84" rx="3" ry="3" style="stroke:#038048;stroke-width:1.0;"/><text fill="#000000" font-family="sans-serif" font-size="14" lengthAdjust="spacing" textLength="81" x="27" y="701.6426">BotInmate()</text><ellipse cx="18" cy="714.5928" fill="#84BE84" rx="3" ry="3" style="stroke:#038048;stroke-width:1.0;"/><text fill="#000000" font-family="sans-serif" font-size="14" lengthAdjust="spacing" textLength="301" x="27" y="717.9395">BotInmate(string, int, int, int, int, int, double)</text><ellipse cx="18" cy="730.8897" fill="#84BE84" rx="3" ry="3" style="stroke:#038048;stroke-width:1.0;"/><text fill="#000000" font-family="sans-serif" font-size="14" lengthAdjust="spacing" textLength="207" x="27" y="734.2364">BotInmate(const BotInmate&amp;)</text><ellipse cx="18" cy="747.1866" fill="#84BE84" rx="3" ry="3" style="stroke:#038048;stroke-width:1.0;"/><text fill="#000000" font-family="sans-serif" font-size="14" lengthAdjust="spacing" textLength="93" x="27" y="750.5332">~BotInmate()</text><ellipse cx="18" cy="763.4834" fill="#84BE84" rx="3" ry="3" style="stroke:#038048;stroke-width:1.0;"/><text fill="#000000" font-family="sans-serif" font-size="14" lengthAdjust="spacing" textLength="114" x="27" y="766.8301">toFullJson(): json</text><ellipse cx="18" cy="779.7803" fill="#84BE84" rx="3" ry="3" style="stroke:#038048;stroke-width:1.0;"/><text fill="#000000" font-family="sans-serif" font-size="14" lengthAdjust="spacing" textLength="143" x="27" y="783.127">showRequest(): void</text><ellipse cx="18" cy="796.0772" fill="#84BE84" rx="3" ry="3" style="stroke:#038048;stroke-width:1.0;"/><text fill="#000000" font-family="sans-serif" font-size="14" lengthAdjust="spacing" textLength="276" x="27" y="799.4239">completeRequest(const Item&amp;): double</text><ellipse cx="18" cy="812.3741" fill="#84BE84" rx="3" ry="3" style="stroke:#038048;stroke-width:1.0;"/><text fill="#000000" font-family="sans-serif" font-size="14" lengthAdjust="spacing" textLength="170" x="27" y="815.7207">drawRequest(): Request</text></g><!--class PlayerInmate--><g id="elem_PlayerInmate"><rect codeLine="44" fill="#F1F1F1" height="357.6406" id="PlayerInmate" rx="2.5" ry="2.5" style="stroke:#181818;stroke-width:0.5;" width="344" x="444" y="522.42"/><ellipse cx="567.75" cy="538.42" fill="#ADD1B2" rx="11" ry="11" style="stroke:#181818;stroke-width:1.0;"/><path d="M570.7188,544.0606 Q570.1406,544.3575 569.5,544.4981 Q568.8594,544.6544 568.1563,544.6544 Q565.6563,544.6544 564.3281,543.0138 Q563.0156,541.3575 563.0156,538.2325 Q563.0156,535.1075 564.3281,533.4513 Q565.6563,531.795 568.1563,531.795 Q568.8594,531.795 569.5,531.9513 Q570.1563,532.1075 570.7188,532.4044 L570.7188,535.1231 Q570.0938,534.545 569.5,534.2794 Q568.9063,533.9981 568.2813,533.9981 Q566.9375,533.9981 566.25,535.0763 Q565.5625,536.1388 565.5625,538.2325 Q565.5625,540.3263 566.25,541.4044 Q566.9375,542.4669 568.2813,542.4669 Q568.9063,542.4669 569.5,542.2013 Q570.0938,541.92 570.7188,541.3419 L570.7188,544.0606 Z " fill="#000000"/><text fill="#000000" font-family="sans-serif" font-size="14" lengthAdjust="spacing" textLength="88" x="588.25" y="543.2667">PlayerInmate</text><line style="stroke:#181818;stroke-width:0.5;" x1="445" x2="787" y1="554.42" y2="554.42"/><rect fill="none" height="6" style="stroke:#C82930;stroke-width:1.0;" width="6" x="452" y="565.0684"/><text fill="#000000" font-family="sans-serif" font-size="14" lengthAdjust="spacing" textLength="173" x="464" y="571.4151">MAXNUMITEMS: const int</text><rect fill="none" height="6" style="stroke:#C82930;stroke-width:1.0;" width="6" x="452" y="581.3653"/><text fill="#000000" font-family="sans-serif" font-size="14" lengthAdjust="spacing" textLength="74" x="464" y="587.712">outfit: Item</text><rect fill="none" height="6" style="stroke:#C82930;stroke-width:1.0;" width="6" x="452" y="597.6622"/><text fill="#000000" font-family="sans-serif" font-size="14" lengthAdjust="spacing" textLength="196" x="464" y="604.0089">storedItems: vector&lt;Item*&gt;</text><rect fill="none" height="6" style="stroke:#C82930;stroke-width:1.0;" width="6" x="452" y="613.9591"/><text fill="#000000" font-family="sans-serif" font-size="14" lengthAdjust="spacing" textLength="286" x="464" y="620.3057">acceptedRequests: vector&lt;BotInmate*&gt;</text><line style="stroke:#181818;stroke-width:0.5;" x1="445" x2="787" y1="627.6075" y2="627.6075"/><ellipse cx="455" cy="641.2559" fill="#84BE84" rx="3" ry="3" style="stroke:#038048;stroke-width:1.0;"/><text fill="#000000" font-family="sans-serif" font-size="14" lengthAdjust="spacing" textLength="98" x="464" y="644.6026">PlayerInmate()</text><ellipse cx="455" cy="657.5528" fill="#84BE84" rx="3" ry="3" style="stroke:#038048;stroke-width:1.0;"/><text fill="#000000" font-family="sans-serif" font-size="14" lengthAdjust="spacing" textLength="318" x="464" y="660.8995">PlayerInmate(string, int, int, int, int, int, double)</text><ellipse cx="455" cy="673.8497" fill="#84BE84" rx="3" ry="3" style="stroke:#038048;stroke-width:1.0;"/><text fill="#000000" font-family="sans-serif" font-size="14" lengthAdjust="spacing" textLength="241" x="464" y="677.1964">PlayerInmate(const PlayerInmate&amp;)</text><ellipse cx="455" cy="690.1466" fill="#84BE84" rx="3" ry="3" style="stroke:#038048;stroke-width:1.0;"/><text fill="#000000" font-family="sans-serif" font-size="14" lengthAdjust="spacing" textLength="110" x="464" y="693.4932">~PlayerInmate()</text><ellipse cx="455" cy="706.4434" fill="#84BE84" rx="3" ry="3" style="stroke:#038048;stroke-width:1.0;"/><text fill="#000000" font-family="sans-serif" font-size="14" lengthAdjust="spacing" textLength="114" x="464" y="709.7901">toFullJson(): json</text><ellipse cx="455" cy="722.7403" fill="#84BE84" rx="3" ry="3" style="stroke:#038048;stroke-width:1.0;"/><text fill="#000000" font-family="sans-serif" font-size="14" lengthAdjust="spacing" textLength="246" x="464" y="726.087">refreshStoredItemsLocations(): void</text><ellipse cx="455" cy="739.0372" fill="#84BE84" rx="3" ry="3" style="stroke:#038048;stroke-width:1.0;"/><text fill="#000000" font-family="sans-serif" font-size="14" lengthAdjust="spacing" textLength="191" x="464" y="742.3839">refreshOutfitLocation(): void</text><ellipse cx="455" cy="755.3341" fill="#84BE84" rx="3" ry="3" style="stroke:#038048;stroke-width:1.0;"/><text fill="#000000" font-family="sans-serif" font-size="14" lengthAdjust="spacing" textLength="188" x="464" y="758.6807">addItem(const Item&amp;): void</text><ellipse cx="455" cy="771.6309" fill="#84BE84" rx="3" ry="3" style="stroke:#038048;stroke-width:1.0;"/><text fill="#000000" font-family="sans-serif" font-size="14" lengthAdjust="spacing" textLength="85" x="464" y="774.9776">sleep(): void</text><ellipse cx="455" cy="787.9278" fill="#84BE84" rx="3" ry="3" style="stroke:#038048;stroke-width:1.0;"/><text fill="#000000" font-family="sans-serif" font-size="14" lengthAdjust="spacing" textLength="279" x="464" y="791.2745">acceptRequest(const BotInmate&amp;): void</text><ellipse cx="455" cy="804.2247" fill="#84BE84" rx="3" ry="3" style="stroke:#038048;stroke-width:1.0;"/><text fill="#000000" font-family="sans-serif" font-size="14" lengthAdjust="spacing" textLength="128" x="464" y="807.5714">dropItem(int): Item</text><ellipse cx="455" cy="820.5216" fill="#84BE84" rx="3" ry="3" style="stroke:#038048;stroke-width:1.0;"/><text fill="#000000" font-family="sans-serif" font-size="14" lengthAdjust="spacing" textLength="147" x="464" y="823.8682">showInventory(): void</text><ellipse cx="455" cy="836.8184" fill="#84BE84" rx="3" ry="3" style="stroke:#038048;stroke-width:1.0;"/><text fill="#000000" font-family="sans-serif" font-size="14" lengthAdjust="spacing" textLength="207" x="464" y="840.1651">viewPlayerInmateProfile(): void</text><ellipse cx="455" cy="853.1153" fill="#84BE84" rx="3" ry="3" style="stroke:#038048;stroke-width:1.0;"/><text fill="#000000" font-family="sans-serif" font-size="14" lengthAdjust="spacing" textLength="276" x="464" y="856.462">giveItemTo(int, const BotInmate&amp;): Item</text><ellipse cx="455" cy="869.4122" fill="#84BE84" rx="3" ry="3" style="stroke:#038048;stroke-width:1.0;"/><text fill="#000000" font-family="sans-serif" font-size="14" lengthAdjust="spacing" textLength="217" x="464" y="872.7589">showAcceptedRequests(): void</text></g><!--class Item--><g id="elem_Item"><rect codeLine="66" fill="#F1F1F1" height="341.3438" id="Item" rx="2.5" ry="2.5" style="stroke:#181818;stroke-width:0.5;" width="386" x="811" y="64.04"/><ellipse cx="984.75" cy="80.04" fill="#ADD1B2" rx="11" ry="11" style="stroke:#181818;stroke-width:1.0;"/><path d="M987.7188,85.6806 Q987.1406,85.9775 986.5,86.1181 Q985.8594,86.2744 985.1563,86.2744 Q982.6563,86.2744 981.3281,84.6337 Q980.0156,82.9775 980.0156,79.8525 Q980.0156,76.7275 981.3281,75.0712 Q982.6563,73.415 985.1563,73.415 Q985.8594,73.415 986.5,73.5712 Q987.1563,73.7275 987.7188,74.0244 L987.7188,76.7431 Q987.0938,76.165 986.5,75.8994 Q985.9063,75.6181 985.2813,75.6181 Q983.9375,75.6181 983.25,76.6962 Q982.5625,77.7587 982.5625,79.8525 Q982.5625,81.9462 983.25,83.0244 Q983.9375,84.0869 985.2813,84.0869 Q985.9063,84.0869 986.5,83.8212 Q987.0938,83.54 987.7188,82.9619 L987.7188,85.6806 Z " fill="#000000"/><text fill="#000000" font-family="sans-serif" font-size="14" lengthAdjust="spacing" textLength="30" x="1005.25" y="84.8867">Item</text><line style="stroke:#181818;stroke-width:0.5;" x1="812" x2="1196" y1="96.04" y2="96.04"/><rect fill="none" height="6" style="stroke:#C82930;stroke-width:1.0;" width="6" x="819" y="106.6884"/><text fill="#000000" font-family="sans-serif" font-size="14" lengthAdjust="spacing" textLength="118" x="831" y="113.0351">itemName: string</text><rect fill="none" height="6" style="stroke:#C82930;stroke-width:1.0;" width="6" x="819" y="122.9853"/><text fill="#000000" font-family="sans-serif" font-size="14" lengthAdjust="spacing" textLength="131" x="831" y="129.332">ownerName: string</text><rect fill="none" height="6" style="stroke:#C82930;stroke-width:1.0;" width="6" x="819" y="139.2822"/><text fill="#000000" font-family="sans-serif" font-size="14" lengthAdjust="spacing" textLength="156" x="831" y="145.6289">currentLocation: string</text><rect fill="none" height="6" style="stroke:#C82930;stroke-width:1.0;" width="6" x="819" y="155.5791"/><text fill="#000000" font-family="sans-serif" font-size="14" lengthAdjust="spacing" textLength="209" x="831" y="161.9257">MAXNUMITEMTYPES: const int</text><rect fill="none" height="6" style="stroke:#C82930;stroke-width:1.0;" width="6" x="819" y="171.8759"/><text fill="#000000" font-family="sans-serif" font-size="14" lengthAdjust="spacing" textLength="360" x="831" y="178.2226">ITEMTYPES: const static string[MAXNUMITEMTYPES]</text><line style="stroke:#181818;stroke-width:0.5;" x1="812" x2="1196" y1="185.5244" y2="185.5244"/><ellipse cx="822" cy="199.1728" fill="#84BE84" rx="3" ry="3" style="stroke:#038048;stroke-width:1.0;"/><text fill="#000000" font-family="sans-serif" font-size="14" lengthAdjust="spacing" textLength="40" x="831" y="202.5195">Item()</text><ellipse cx="822" cy="215.4697" fill="#84BE84" rx="3" ry="3" style="stroke:#038048;stroke-width:1.0;"/><text fill="#000000" font-family="sans-serif" font-size="14" lengthAdjust="spacing" textLength="173" x="831" y="218.8164">Item(string, string, string)</text><ellipse cx="822" cy="231.7666" fill="#84BE84" rx="3" ry="3" style="stroke:#038048;stroke-width:1.0;"/><text fill="#000000" font-family="sans-serif" font-size="14" lengthAdjust="spacing" textLength="236" x="831" y="235.1132">Item(string, const Inmate&amp;, string)</text><ellipse cx="822" cy="248.0634" fill="#84BE84" rx="3" ry="3" style="stroke:#038048;stroke-width:1.0;"/><text fill="#000000" font-family="sans-serif" font-size="14" lengthAdjust="spacing" textLength="125" x="831" y="251.4101">Item(const Item&amp;)</text><ellipse cx="822" cy="264.3603" fill="#84BE84" rx="3" ry="3" style="stroke:#038048;stroke-width:1.0;"/><text fill="#000000" font-family="sans-serif" font-size="14" lengthAdjust="spacing" textLength="52" x="831" y="267.707">~Item()</text><ellipse cx="822" cy="280.6572" fill="#84BE84" rx="3" ry="3" style="stroke:#038048;stroke-width:1.0;"/><text fill="#000000" font-family="sans-serif" font-size="14" lengthAdjust="spacing" textLength="91" x="831" y="284.0039">toJson(): json</text><ellipse cx="822" cy="296.9541" fill="#84BE84" rx="3" ry="3" style="stroke:#038048;stroke-width:1.0;"/><text fill="#000000" font-family="sans-serif" font-size="14" lengthAdjust="spacing" textLength="217" x="831" y="300.3007">catchItem(const Inmate&amp;): void</text><ellipse cx="822" cy="313.2509" fill="#84BE84" rx="3" ry="3" style="stroke:#038048;stroke-width:1.0;"/><text fill="#000000" font-family="sans-serif" font-size="14" lengthAdjust="spacing" textLength="195" x="831" y="316.5976">giveTo(const Inmate&amp;): void</text><ellipse cx="822" cy="329.5478" fill="#84BE84" rx="3" ry="3" style="stroke:#038048;stroke-width:1.0;"/><text fill="#000000" font-family="sans-serif" font-size="14" lengthAdjust="spacing" textLength="118" x="831" y="332.8945">drop(string): void</text><ellipse cx="822" cy="345.8447" fill="#84BE84" rx="3" ry="3" style="stroke:#038048;stroke-width:1.0;"/><text fill="#000000" font-family="sans-serif" font-size="14" lengthAdjust="spacing" textLength="110" x="831" y="349.1914">viewInfos(): void</text><rect fill="#F24D5C" height="6" style="stroke:#C82930;stroke-width:1.0;" width="6" x="819" y="359.1416"/><text fill="#000000" font-family="sans-serif" font-size="14" lengthAdjust="spacing" textLength="121" x="831" y="365.4882">drawItem(): string</text><rect fill="#F24D5C" height="6" style="stroke:#C82930;stroke-width:1.0;" width="6" x="819" y="375.4384"/><text fill="#000000" font-family="sans-serif" font-size="14" lengthAdjust="spacing" textLength="182" x="831" y="381.7851">strip(const string&amp;): string</text><rect fill="#F24D5C" height="6" style="stroke:#C82930;stroke-width:1.0;" width="6" x="819" y="391.7353"/><text fill="#000000" font-family="sans-serif" font-size="14" lengthAdjust="spacing" textLength="187" x="831" y="398.082">toLowerCase(string): string</text></g><!--class ScapeTool--><g id="elem_ScapeTool"><rect codeLine="87" fill="#F1F1F1" height="64.2969" id="ScapeTool" rx="2.5" ry="2.5" style="stroke:#181818;stroke-width:0.5;" width="109" x="881.5" y="669.09"/><ellipse cx="898.3" cy="685.09" fill="#ADD1B2" rx="11" ry="11" style="stroke:#181818;stroke-width:1.0;"/><path d="M901.2688,690.7306 Q900.6906,691.0275 900.05,691.1681 Q899.4094,691.3244 898.7063,691.3244 Q896.2063,691.3244 894.8781,689.6838 Q893.5656,688.0275 893.5656,684.9025 Q893.5656,681.7775 894.8781,680.1213 Q896.2063,678.465 898.7063,678.465 Q899.4094,678.465 900.05,678.6213 Q900.7063,678.7775 901.2688,679.0744 L901.2688,681.7931 Q900.6438,681.215 900.05,680.9494 Q899.4563,680.6681 898.8313,680.6681 Q897.4875,680.6681 896.8,681.7463 Q896.1125,682.8088 896.1125,684.9025 Q896.1125,686.9963 896.8,688.0744 Q897.4875,689.1369 898.8313,689.1369 Q899.4563,689.1369 900.05,688.8713 Q900.6438,688.59 901.2688,688.0119 L901.2688,690.7306 Z " fill="#000000"/><text fill="#000000" font-family="sans-serif" font-size="14" lengthAdjust="spacing" textLength="73" x="912.7" y="689.9367">ScapeTool</text><line style="stroke:#181818;stroke-width:0.5;" x1="882.5" x2="989.5" y1="701.09" y2="701.09"/><line style="stroke:#181818;stroke-width:0.5;" x1="882.5" x2="989.5" y1="709.09" y2="709.09"/><ellipse cx="892.5" cy="722.7384" fill="#84BE84" rx="3" ry="3" style="stroke:#038048;stroke-width:1.0;"/><text fill="#000000" font-family="sans-serif" font-size="14" lengthAdjust="spacing" textLength="83" x="901.5" y="726.0851">ScapeTool()</text></g><!--class Weapon--><g id="elem_Weapon"><rect codeLine="91" fill="#F1F1F1" height="64.2969" id="Weapon" rx="2.5" ry="2.5" style="stroke:#181818;stroke-width:0.5;" width="93" x="1025.5" y="669.09"/><ellipse cx="1042.3" cy="685.09" fill="#ADD1B2" rx="11" ry="11" style="stroke:#181818;stroke-width:1.0;"/><path d="M1045.2688,690.7306 Q1044.6906,691.0275 1044.05,691.1681 Q1043.4094,691.3244 1042.7063,691.3244 Q1040.2063,691.3244 1038.8781,689.6838 Q1037.5656,688.0275 1037.5656,684.9025 Q1037.5656,681.7775 1038.8781,680.1213 Q1040.2063,678.465 1042.7063,678.465 Q1043.4094,678.465 1044.05,678.6213 Q1044.7063,678.7775 1045.2688,679.0744 L1045.2688,681.7931 Q1044.6438,681.215 1044.05,680.9494 Q1043.4563,680.6681 1042.8313,680.6681 Q1041.4875,680.6681 1040.8,681.7463 Q1040.1125,682.8088 1040.1125,684.9025 Q1040.1125,686.9963 1040.8,688.0744 Q1041.4875,689.1369 1042.8313,689.1369 Q1043.4563,689.1369 1044.05,688.8713 Q1044.6438,688.59 1045.2688,688.0119 L1045.2688,690.7306 Z " fill="#000000"/><text fill="#000000" font-family="sans-serif" font-size="14" lengthAdjust="spacing" textLength="57" x="1056.7" y="689.9367">Weapon</text><line style="stroke:#181818;stroke-width:0.5;" x1="1026.5" x2="1117.5" y1="701.09" y2="701.09"/><line style="stroke:#181818;stroke-width:0.5;" x1="1026.5" x2="1117.5" y1="709.09" y2="709.09"/><ellipse cx="1036.5" cy="722.7384" fill="#84BE84" rx="3" ry="3" style="stroke:#038048;stroke-width:1.0;"/><text fill="#000000" font-family="sans-serif" font-size="14" lengthAdjust="spacing" textLength="67" x="1045.5" y="726.0851">Weapon()</text></g><!--class Shovel--><g id="elem_Shovel"><rect codeLine="95" fill="#F1F1F1" height="64.2969" id="Shovel" rx="2.5" ry="2.5" style="stroke:#181818;stroke-width:0.5;" width="82" x="842" y="940.06"/><ellipse cx="858.8" cy="956.06" fill="#ADD1B2" rx="11" ry="11" style="stroke:#181818;stroke-width:1.0;"/><path d="M861.7688,961.7006 Q861.1906,961.9975 860.55,962.1381 Q859.9094,962.2944 859.2063,962.2944 Q856.7063,962.2944 855.3781,960.6538 Q854.0656,958.9975 854.0656,955.8725 Q854.0656,952.7475 855.3781,951.0913 Q856.7063,949.435 859.2063,949.435 Q859.9094,949.435 860.55,949.5913 Q861.2063,949.7475 861.7688,950.0444 L861.7688,952.7631 Q861.1438,952.185 860.55,951.9194 Q859.9563,951.6381 859.3313,951.6381 Q857.9875,951.6381 857.3,952.7163 Q856.6125,953.7788 856.6125,955.8725 Q856.6125,957.9663 857.3,959.0444 Q857.9875,960.1069 859.3313,960.1069 Q859.9563,960.1069 860.55,959.8413 Q861.1438,959.56 861.7688,958.9819 L861.7688,961.7006 Z " fill="#000000"/><text fill="#000000" font-family="sans-serif" font-size="14" lengthAdjust="spacing" textLength="46" x="873.2" y="960.9067">Shovel</text><line style="stroke:#181818;stroke-width:0.5;" x1="843" x2="923" y1="972.06" y2="972.06"/><line style="stroke:#181818;stroke-width:0.5;" x1="843" x2="923" y1="980.06" y2="980.06"/><ellipse cx="853" cy="993.7084" fill="#84BE84" rx="3" ry="3" style="stroke:#038048;stroke-width:1.0;"/><text fill="#000000" font-family="sans-serif" font-size="14" lengthAdjust="spacing" textLength="56" x="862" y="997.0551">Shovel()</text></g><!--class Key--><g id="elem_Key"><rect codeLine="99" fill="#F1F1F1" height="64.2969" id="Key" rx="2.5" ry="2.5" style="stroke:#181818;stroke-width:0.5;" width="61" x="958.5" y="940.06"/><ellipse cx="975.3" cy="956.06" fill="#ADD1B2" rx="11" ry="11" style="stroke:#181818;stroke-width:1.0;"/><path d="M978.2688,961.7006 Q977.6906,961.9975 977.05,962.1381 Q976.4094,962.2944 975.7063,962.2944 Q973.2063,962.2944 971.8781,960.6538 Q970.5656,958.9975 970.5656,955.8725 Q970.5656,952.7475 971.8781,951.0913 Q973.2063,949.435 975.7063,949.435 Q976.4094,949.435 977.05,949.5913 Q977.7063,949.7475 978.2688,950.0444 L978.2688,952.7631 Q977.6438,952.185 977.05,951.9194 Q976.4563,951.6381 975.8313,951.6381 Q974.4875,951.6381 973.8,952.7163 Q973.1125,953.7788 973.1125,955.8725 Q973.1125,957.9663 973.8,959.0444 Q974.4875,960.1069 975.8313,960.1069 Q976.4563,960.1069 977.05,959.8413 Q977.6438,959.56 978.2688,958.9819 L978.2688,961.7006 Z " fill="#000000"/><text fill="#000000" font-family="sans-serif" font-size="14" lengthAdjust="spacing" textLength="25" x="989.7" y="960.9067">Key</text><line style="stroke:#181818;stroke-width:0.5;" x1="959.5" x2="1018.5" y1="972.06" y2="972.06"/><line style="stroke:#181818;stroke-width:0.5;" x1="959.5" x2="1018.5" y1="980.06" y2="980.06"/><ellipse cx="969.5" cy="993.7084" fill="#84BE84" rx="3" ry="3" style="stroke:#038048;stroke-width:1.0;"/><text fill="#000000" font-family="sans-serif" font-size="14" lengthAdjust="spacing" textLength="35" x="978.5" y="997.0551">Key()</text></g><!--class Employee--><g id="elem_Employee"><rect codeLine="103" fill="#F1F1F1" height="64.2969" id="Employee" rx="2.5" ry="2.5" style="stroke:#181818;stroke-width:0.5;" width="104" x="1232" y="202.56"/><ellipse cx="1248.8" cy="218.56" fill="#ADD1B2" rx="11" ry="11" style="stroke:#181818;stroke-width:1.0;"/><path d="M1251.7688,224.2006 Q1251.1906,224.4975 1250.55,224.6381 Q1249.9094,224.7944 1249.2063,224.7944 Q1246.7063,224.7944 1245.3781,223.1538 Q1244.0656,221.4975 1244.0656,218.3725 Q1244.0656,215.2475 1245.3781,213.5913 Q1246.7063,211.935 1249.2063,211.935 Q1249.9094,211.935 1250.55,212.0913 Q1251.2063,212.2475 1251.7688,212.5444 L1251.7688,215.2631 Q1251.1438,214.685 1250.55,214.4194 Q1249.9563,214.1381 1249.3313,214.1381 Q1247.9875,214.1381 1247.3,215.2163 Q1246.6125,216.2788 1246.6125,218.3725 Q1246.6125,220.4663 1247.3,221.5444 Q1247.9875,222.6069 1249.3313,222.6069 Q1249.9563,222.6069 1250.55,222.3413 Q1251.1438,222.06 1251.7688,221.4819 L1251.7688,224.2006 Z " fill="#000000"/><text fill="#000000" font-family="sans-serif" font-size="14" lengthAdjust="spacing" textLength="68" x="1263.2" y="223.4067">Employee</text><line style="stroke:#181818;stroke-width:0.5;" x1="1233" x2="1335" y1="234.56" y2="234.56"/><line style="stroke:#181818;stroke-width:0.5;" x1="1233" x2="1335" y1="242.56" y2="242.56"/><ellipse cx="1243" cy="256.2084" fill="#84BE84" rx="3" ry="3" style="stroke:#038048;stroke-width:1.0;"/><text fill="#000000" font-family="sans-serif" font-size="14" lengthAdjust="spacing" textLength="78" x="1252" y="259.5551">Employee()</text></g><!--class Doorman--><g id="elem_Doorman"><rect codeLine="107" fill="#F1F1F1" height="64.2969" id="Doorman" rx="2.5" ry="2.5" style="stroke:#181818;stroke-width:0.5;" width="100" x="1194" y="669.09"/><ellipse cx="1210.8" cy="685.09" fill="#ADD1B2" rx="11" ry="11" style="stroke:#181818;stroke-width:1.0;"/><path d="M1213.7688,690.7306 Q1213.1906,691.0275 1212.55,691.1681 Q1211.9094,691.3244 1211.2063,691.3244 Q1208.7063,691.3244 1207.3781,689.6838 Q1206.0656,688.0275 1206.0656,684.9025 Q1206.0656,681.7775 1207.3781,680.1213 Q1208.7063,678.465 1211.2063,678.465 Q1211.9094,678.465 1212.55,678.6213 Q1213.2063,678.7775 1213.7688,679.0744 L1213.7688,681.7931 Q1213.1438,681.215 1212.55,680.9494 Q1211.9563,680.6681 1211.3313,680.6681 Q1209.9875,680.6681 1209.3,681.7463 Q1208.6125,682.8088 1208.6125,684.9025 Q1208.6125,686.9963 1209.3,688.0744 Q1209.9875,689.1369 1211.3313,689.1369 Q1211.9563,689.1369 1212.55,688.8713 Q1213.1438,688.59 1213.7688,688.0119 L1213.7688,690.7306 Z " fill="#000000"/><text fill="#000000" font-family="sans-serif" font-size="14" lengthAdjust="spacing" textLength="64" x="1225.2" y="689.9367">Doorman</text><line style="stroke:#181818;stroke-width:0.5;" x1="1195" x2="1293" y1="701.09" y2="701.09"/><line style="stroke:#181818;stroke-width:0.5;" x1="1195" x2="1293" y1="709.09" y2="709.09"/><ellipse cx="1205" cy="722.7384" fill="#84BE84" rx="3" ry="3" style="stroke:#038048;stroke-width:1.0;"/><text fill="#000000" font-family="sans-serif" font-size="14" lengthAdjust="spacing" textLength="74" x="1214" y="726.0851">Doorman()</text></g><!--class Guard--><g id="elem_Guard"><rect codeLine="111" fill="#F1F1F1" height="64.2969" id="Guard" rx="2.5" ry="2.5" style="stroke:#181818;stroke-width:0.5;" width="78" x="1329" y="669.09"/><ellipse cx="1345.8" cy="685.09" fill="#ADD1B2" rx="11" ry="11" style="stroke:#181818;stroke-width:1.0;"/><path d="M1348.7688,690.7306 Q1348.1906,691.0275 1347.55,691.1681 Q1346.9094,691.3244 1346.2063,691.3244 Q1343.7063,691.3244 1342.3781,689.6838 Q1341.0656,688.0275 1341.0656,684.9025 Q1341.0656,681.7775 1342.3781,680.1213 Q1343.7063,678.465 1346.2063,678.465 Q1346.9094,678.465 1347.55,678.6213 Q1348.2063,678.7775 1348.7688,679.0744 L1348.7688,681.7931 Q1348.1438,681.215 1347.55,680.9494 Q1346.9563,680.6681 1346.3313,680.6681 Q1344.9875,680.6681 1344.3,681.7463 Q1343.6125,682.8088 1343.6125,684.9025 Q1343.6125,686.9963 1344.3,688.0744 Q1344.9875,689.1369 1346.3313,689.1369 Q1346.9563,689.1369 1347.55,688.8713 Q1348.1438,688.59 1348.7688,688.0119 L1348.7688,690.7306 Z " fill="#000000"/><text fill="#000000" font-family="sans-serif" font-size="14" lengthAdjust="spacing" textLength="42" x="1360.2" y="689.9367">Guard</text><line style="stroke:#181818;stroke-width:0.5;" x1="1330" x2="1406" y1="701.09" y2="701.09"/><line style="stroke:#181818;stroke-width:0.5;" x1="1330" x2="1406" y1="709.09" y2="709.09"/><ellipse cx="1340" cy="722.7384" fill="#84BE84" rx="3" ry="3" style="stroke:#038048;stroke-width:1.0;"/><text fill="#000000" font-family="sans-serif" font-size="14" lengthAdjust="spacing" textLength="52" x="1349" y="726.0851">Guard()</text></g><!--class PatrolGuard--><g id="elem_PatrolGuard"><rect codeLine="115" fill="#F1F1F1" height="64.2969" id="PatrolGuard" rx="2.5" ry="2.5" style="stroke:#181818;stroke-width:0.5;" width="117" x="1229.5" y="940.06"/><ellipse cx="1246.3" cy="956.06" fill="#ADD1B2" rx="11" ry="11" style="stroke:#181818;stroke-width:1.0;"/><path d="M1249.2688,961.7006 Q1248.6906,961.9975 1248.05,962.1381 Q1247.4094,962.2944 1246.7063,962.2944 Q1244.2063,962.2944 1242.8781,960.6538 Q1241.5656,958.9975 1241.5656,955.8725 Q1241.5656,952.7475 1242.8781,951.0913 Q1244.2063,949.435 1246.7063,949.435 Q1247.4094,949.435 1248.05,949.5913 Q1248.7063,949.7475 1249.2688,950.0444 L1249.2688,952.7631 Q1248.6438,952.185 1248.05,951.9194 Q1247.4563,951.6381 1246.8313,951.6381 Q1245.4875,951.6381 1244.8,952.7163 Q1244.1125,953.7788 1244.1125,955.8725 Q1244.1125,957.9663 1244.8,959.0444 Q1245.4875,960.1069 1246.8313,960.1069 Q1247.4563,960.1069 1248.05,959.8413 Q1248.6438,959.56 1249.2688,958.9819 L1249.2688,961.7006 Z " fill="#000000"/><text fill="#000000" font-family="sans-serif" font-size="14" lengthAdjust="spacing" textLength="81" x="1260.7" y="960.9067">PatrolGuard</text><line style="stroke:#181818;stroke-width:0.5;" x1="1230.5" x2="1345.5" y1="972.06" y2="972.06"/><line style="stroke:#181818;stroke-width:0.5;" x1="1230.5" x2="1345.5" y1="980.06" y2="980.06"/><ellipse cx="1240.5" cy="993.7084" fill="#84BE84" rx="3" ry="3" style="stroke:#038048;stroke-width:1.0;"/><text fill="#000000" font-family="sans-serif" font-size="14" lengthAdjust="spacing" textLength="91" x="1249.5" y="997.0551">PatrolGuard()</text></g><!--class SecurityGuard--><g id="elem_SecurityGuard"><rect codeLine="119" fill="#F1F1F1" height="64.2969" id="SecurityGuard" rx="2.5" ry="2.5" style="stroke:#181818;stroke-width:0.5;" width="133" x="1381.5" y="940.06"/><ellipse cx="1398.3" cy="956.06" fill="#ADD1B2" rx="11" ry="11" style="stroke:#181818;stroke-width:1.0;"/><path d="M1401.2688,961.7006 Q1400.6906,961.9975 1400.05,962.1381 Q1399.4094,962.2944 1398.7063,962.2944 Q1396.2063,962.2944 1394.8781,960.6538 Q1393.5656,958.9975 1393.5656,955.8725 Q1393.5656,952.7475 1394.8781,951.0913 Q1396.2063,949.435 1398.7063,949.435 Q1399.4094,949.435 1400.05,949.5913 Q1400.7063,949.7475 1401.2688,950.0444 L1401.2688,952.7631 Q1400.6438,952.185 1400.05,951.9194 Q1399.4563,951.6381 1398.8313,951.6381 Q1397.4875,951.6381 1396.8,952.7163 Q1396.1125,953.7788 1396.1125,955.8725 Q1396.1125,957.9663 1396.8,959.0444 Q1397.4875,960.1069 1398.8313,960.1069 Q1399.4563,960.1069 1400.05,959.8413 Q1400.6438,959.56 1401.2688,958.9819 L1401.2688,961.7006 Z " fill="#000000"/><text fill="#000000" font-family="sans-serif" font-size="14" lengthAdjust="spacing" textLength="97" x="1412.7" y="960.9067">SecurityGuard</text><line style="stroke:#181818;stroke-width:0.5;" x1="1382.5" x2="1513.5" y1="972.06" y2="972.06"/><line style="stroke:#181818;stroke-width:0.5;" x1="1382.5" x2="1513.5" y1="980.06" y2="980.06"/><ellipse cx="1392.5" cy="993.7084" fill="#84BE84" rx="3" ry="3" style="stroke:#038048;stroke-width:1.0;"/><text fill="#000000" font-family="sans-serif" font-size="14" lengthAdjust="spacing" textLength="107" x="1401.5" y="997.0551">SecurityGuard()</text></g><!--reverse link Inmate to BotInmate--><g id="link_Inmate_BotInmate"><path codeLine="123" d="M323.8292,478.8209 C302.8292,518.9809 290.06,543.38 271.35,579.14 " fill="none" id="Inmate-backto-BotInmate" style="stroke:#181818;stroke-width:1.0;"/><polygon fill="none" points="332.17,462.87,318.5122,476.0406,329.1461,481.6012,332.17,462.87" style="stroke:#181818;stroke-width:1.0;"/></g><!--reverse link Inmate to PlayerInmate--><g id="link_Inmate_PlayerInmate"><path codeLine="124" d="M537.7133,479.8323 C544.7833,499.7423 545.84,502.73 552.74,522.15 " fill="none" id="Inmate-backto-PlayerInmate" style="stroke:#181818;stroke-width:1.0;"/><polygon fill="none" points="531.69,462.87,532.0592,481.8401,543.3674,477.8246,531.69,462.87" style="stroke:#181818;stroke-width:1.0;"/></g><!--reverse link Item to ScapeTool--><g id="link_Item_ScapeTool"><path codeLine="125" d="M976.5034,423.5303 C962.3234,520.4203 948.46,615.1 940.62,668.7 " fill="none" id="Item-backto-ScapeTool" style="stroke:#181818;stroke-width:1.0;"/><polygon fill="none" points="979.11,405.72,970.5667,422.6614,982.4402,424.3991,979.11,405.72" style="stroke:#181818;stroke-width:1.0;"/></g><!--reverse link Item to Weapon--><g id="link_Item_Weapon"><path codeLine="126" d="M1031.4966,423.5303 C1045.6766,520.4203 1059.54,615.1 1067.38,668.7 " fill="none" id="Item-backto-Weapon" style="stroke:#181818;stroke-width:1.0;"/><polygon fill="none" points="1028.89,405.72,1025.5598,424.3991,1037.4333,422.6614,1028.89,405.72" style="stroke:#181818;stroke-width:1.0;"/></g><!--reverse link ScapeTool to Shovel--><g id="link_ScapeTool_Shovel"><path codeLine="127" d="M926.2824,751.5509 C916.0824,803.3509 899.4,887.97 889.21,939.69 " fill="none" id="ScapeTool-backto-Shovel" style="stroke:#181818;stroke-width:1.0;"/><polygon fill="none" points="929.76,733.89,920.3954,750.3917,932.1693,752.7101,929.76,733.89" style="stroke:#181818;stroke-width:1.0;"/></g><!--reverse link ScapeTool to Key--><g id="link_ScapeTool_Key"><path codeLine="128" d="M945.7176,751.5509 C955.9176,803.3509 972.6,887.97 982.79,939.69 " fill="none" id="ScapeTool-backto-Key" style="stroke:#181818;stroke-width:1.0;"/><polygon fill="none" points="942.24,733.89,939.8307,752.7101,951.6046,750.3917,942.24,733.89" style="stroke:#181818;stroke-width:1.0;"/></g><!--reverse link Employee to Doorman--><g id="link_Employee_Doorman"><path codeLine="129" d="M1279.7351,285.2136 C1272.4351,369.9536 1254.02,583.84 1246.72,668.64 " fill="none" id="Employee-backto-Doorman" style="stroke:#181818;stroke-width:1.0;"/><polygon fill="none" points="1281.28,267.28,1273.7572,284.6986,1285.713,285.7285,1281.28,267.28" style="stroke:#181818;stroke-width:1.0;"/></g><!--reverse link Employee to Guard--><g id="link_Employee_Guard"><path codeLine="130" d="M1292.9123,284.9929 C1308.2323,369.7329 1346.95,583.84 1362.28,668.64 " fill="none" id="Employee-backto-Guard" style="stroke:#181818;stroke-width:1.0;"/><polygon fill="none" points="1289.71,267.28,1287.008,286.0603,1298.8166,283.9254,1289.71,267.28" style="stroke:#181818;stroke-width:1.0;"/></g><!--reverse link Guard to PatrolGuard--><g id="link_Guard_PatrolGuard"><path codeLine="131" d="M1353.4575,751.1427 C1338.0475,802.9427 1312.76,887.97 1297.38,939.69 " fill="none" id="Guard-backto-PatrolGuard" style="stroke:#181818;stroke-width:1.0;"/><polygon fill="none" points="1358.59,733.89,1347.7066,749.4319,1359.2084,752.8536,1358.59,733.89" style="stroke:#181818;stroke-width:1.0;"/></g><!--reverse link Guard to SecurityGuard--><g id="link_Guard_SecurityGuard"><path codeLine="132" d="M1382.5425,751.1427 C1397.9525,802.9427 1423.24,887.97 1438.62,939.69 " fill="none" id="Guard-backto-SecurityGuard" style="stroke:#181818;stroke-width:1.0;"/><polygon fill="none" points="1377.41,733.89,1376.7916,752.8536,1388.2934,749.4319,1377.41,733.89" style="stroke:#181818;stroke-width:1.0;"/></g><!--SRC=[bLNRRjim37ttL_YfI9Rb1u9YGBfwGxOcpPfqtLRqGPMPsAjiUfASBDZbsoTBiYtPBeQ-9ERX8KNnK19bH8XmaMT4GlWh2CDfc9CCPg6GFCtt6aY0C9dCmZINseOS-FxKseeA-TvbY08WRatr3uobUyWfj6Y6EQWiCPQF33H2IwuooIkaHAQOUqKivrysYs_HQhwCPY75N4YRQ6Ah7urTmqI-hZZ3FsPPByPaDSQPyVprSaly830VZMVXT_MleLIiIiOgw16HQIZ30spHLc023oaSvuoPPA9Y7p2D6zUQuovbuE4SI7o1-3HIrRhu8v49TC4ZygVhKlgmaY71uneuLJqbUxWWl4lWK02HRnF22PN0tQwvj5JNlIJ5BCn8SQxxPwXlpCJ0JxcmUly90gfdwWAbDrPAmDNjyYRwT1jjjXjVmsdOnOLK8q336_XHWf3tVl233RcRtrn-db_TDXFXp18taRCwXUvJKvCLjBLVD2zjc5csiUkfwQuZyPsQajxmLFhOyZpjAMO50mcrpmwcXEnix1oOIHXpuYQejzfei6Ra17n0XiKsMlOqm5BkKjMnQY5xi953N9b2LGTKcUULzSh8JYY5Ga9ibsqvpVOrSUALOJlYGIzglXTfDk12jGG3QpwZ0eST1v5isitM5v3ed4ZDkzPTgYaUWyGwlgDNunOCeF03T0TzcPrXSfWnnqBdDaVJIcH6Q94Vr0b7VkfVB4uJXYwPVNg0AfMwhdIV1ohmLfft56-IDHDNqUsafUfprNrByAWUZnxwdulV3kpswphg3MtFOMyEa-6-4_rWxlkgaUFsivu__t-0uBqG0pnNUFj-j4iDl1vgkpHn8_l2Ln8fUPxrLuDHlpKTzHVv3jqHdkhxmbJajRZwB4Pr-ohup2T8lC8ZyBT4GBkMzJVIRoWfLAd8jFwJrbRxRqXtG0hCBSCOhdkJgCUpIQ0Dr_qHJjQdlbn7f2vCF05ORsswb4j4df5wQMkvXFSbuR5rws_NkIQI8tCf3kBj0DGmf_BaKZtCaEsTVFvxEctFcuUwPpVGnqh3JLSTpFGnQ0KmJDs-BgeQ5pJTqeXjHGVLjGPc5wQUThykxEqj-0S0]--></g></svg>